M48
;DRILL file {KiCad 4.0.7} date 06/24/18 16:56:03
;FORMAT={-:-/ absolute / inch / decimal}
FMAT,2
INCH,TZ
T1C0.016
T2C0.039
T3C0.043
T4C0.118
%
G90
G05
M72
T1
X2.025Y-1.615
X2.4488Y-1.3622
X2.4488Y-1.7087
X2.7421Y-1.7677
T2
X1.65Y-1.85
X1.65Y-1.95
X1.75Y-1.85
X1.75Y-1.95
X1.85Y-1.85
X1.85Y-1.95
X1.95Y-1.39
X1.95Y-1.85
X1.95Y-1.95
X2.05Y-1.15
X2.05Y-1.25
X2.05Y-1.39
X2.05Y-1.85
X2.05Y-1.95
X2.15Y-1.15
X2.15Y-1.25
X2.15Y-1.85
X2.15Y-1.95
X2.25Y-1.15
X2.25Y-1.25
X2.25Y-1.85
X2.25Y-1.95
X2.35Y-1.15
X2.35Y-1.25
X2.35Y-1.85
X2.35Y-1.95
X2.45Y-1.15
X2.45Y-1.25
X2.45Y-1.85
X2.45Y-1.95
X2.55Y-1.15
X2.55Y-1.25
X2.55Y-1.85
X2.55Y-1.95
X2.65Y-1.15
X2.65Y-1.25
X2.65Y-1.85
X2.65Y-1.95
X2.75Y-1.15
X2.75Y-1.25
X2.75Y-1.85
X2.75Y-1.95
X2.85Y-1.15
X2.85Y-1.25
X2.85Y-1.85
X2.85Y-1.95
X2.95Y-1.15
X2.95Y-1.25
X2.95Y-1.85
X2.95Y-1.95
X3.05Y-1.15
X3.05Y-1.25
X3.05Y-1.85
X3.05Y-1.95
X3.15Y-1.15
X3.15Y-1.25
X3.15Y-1.85
X3.15Y-1.95
T3
X3.275Y-1.4
X3.275Y-1.5
X3.275Y-1.6
X3.275Y-1.7
T4
X1.5329Y-1.475
X1.651Y-1.66
X1.7691Y-1.475
T0
M30
