G04 #@! TF.FileFunction,Copper,L2,Bot,Signal*
%FSLAX46Y46*%
G04 Gerber Fmt 4.6, Leading zero omitted, Abs format (unit mm)*
G04 Created by KiCad (PCBNEW 4.0.7) date 06/24/18 16:56:01*
%MOMM*%
%LPD*%
G01*
G04 APERTURE LIST*
%ADD10C,0.100000*%
%ADD11C,4.500000*%
%ADD12O,1.998980X1.998980*%
%ADD13R,1.998980X1.998980*%
%ADD14R,1.700000X1.700000*%
%ADD15O,1.700000X1.700000*%
%ADD16C,3.302000*%
%ADD17R,1.270000X2.032000*%
%ADD18R,1.270000X0.970000*%
%ADD19C,1.700000*%
%ADD20C,0.600000*%
%ADD21C,0.635000*%
%ADD22C,0.250000*%
%ADD23C,0.203200*%
%ADD24C,0.254000*%
G04 APERTURE END LIST*
D10*
D11*
X44935140Y-37465000D03*
X38935660Y-37465000D03*
X41935400Y-42164000D03*
D12*
X83185000Y-43180000D03*
D13*
X83185000Y-35560000D03*
D12*
X83185000Y-38100000D03*
X83185000Y-40640000D03*
D14*
X41910000Y-46990000D03*
D15*
X44450000Y-46990000D03*
X46990000Y-46990000D03*
X49530000Y-46990000D03*
X52070000Y-46990000D03*
X54610000Y-46990000D03*
X57150000Y-46990000D03*
X59690000Y-46990000D03*
X62230000Y-46990000D03*
X64770000Y-46990000D03*
X67310000Y-46990000D03*
X69850000Y-46990000D03*
X72390000Y-46990000D03*
X74930000Y-46990000D03*
X77470000Y-46990000D03*
X80010000Y-46990000D03*
D14*
X52070000Y-31750000D03*
D15*
X54610000Y-31750000D03*
X57150000Y-31750000D03*
X59690000Y-31750000D03*
X62230000Y-31750000D03*
X64770000Y-31750000D03*
X67310000Y-31750000D03*
X69850000Y-31750000D03*
X72390000Y-31750000D03*
X74930000Y-31750000D03*
X77470000Y-31750000D03*
X80010000Y-31750000D03*
D14*
X49530000Y-35306000D03*
D15*
X52070000Y-35306000D03*
D16*
X38100000Y-48260000D03*
X38100000Y-30480000D03*
D17*
X48387000Y-39243000D03*
D18*
X50038000Y-41021000D03*
D17*
X50038000Y-39243000D03*
D18*
X50038000Y-37465000D03*
D19*
X41910000Y-49530000D03*
X44450000Y-49530000D03*
X46990000Y-49530000D03*
X49530000Y-49530000D03*
X52070000Y-49530000D03*
X54610000Y-49530000D03*
X57150000Y-49530000D03*
X59690000Y-49530000D03*
X62230000Y-49530000D03*
X64770000Y-49530000D03*
X67310000Y-49530000D03*
X69850000Y-49530000D03*
X72390000Y-49530000D03*
X74930000Y-49530000D03*
X77470000Y-49530000D03*
X80010000Y-49530000D03*
X80010000Y-29210000D03*
X77470000Y-29210000D03*
X74930000Y-29210000D03*
X72390000Y-29210000D03*
X69850000Y-29210000D03*
X67310000Y-29210000D03*
X64770000Y-29210000D03*
X62230000Y-29210000D03*
X59690000Y-29210000D03*
X57150000Y-29210000D03*
X54610000Y-29210000D03*
X52070000Y-29210000D03*
D20*
X62200000Y-43400000D03*
X51435000Y-41021000D03*
X62200000Y-34600000D03*
X69650000Y-44900000D03*
D21*
X62400000Y-43200000D02*
X62400000Y-43180000D01*
X62200000Y-43400000D02*
X62400000Y-43200000D01*
X62300000Y-43180000D02*
X62400000Y-43180000D01*
X62400000Y-43180000D02*
X63280000Y-43180000D01*
X83185000Y-43180000D02*
X62300000Y-43180000D01*
X62300000Y-43180000D02*
X61800000Y-43180000D01*
X61800000Y-43180000D02*
X48133000Y-43180000D01*
D22*
X48133000Y-43180000D02*
X47879000Y-43434000D01*
D21*
X49530000Y-46990000D02*
X49530000Y-45085000D01*
X49530000Y-45085000D02*
X47879000Y-43434000D01*
X47879000Y-43434000D02*
X43205400Y-43434000D01*
D22*
X43205400Y-43434000D02*
X38935660Y-39164260D01*
X38935660Y-39164260D02*
X38935660Y-37465000D01*
X44935140Y-37465000D02*
X47371000Y-37465000D01*
X47371000Y-37465000D02*
X49530000Y-35306000D01*
D21*
X50038000Y-37465000D02*
X51181000Y-37465000D01*
X53721000Y-33401000D02*
X52070000Y-31750000D01*
X53721000Y-35941000D02*
X53721000Y-33401000D01*
X52832000Y-36830000D02*
X53721000Y-35941000D01*
X51816000Y-36830000D02*
X52832000Y-36830000D01*
X51181000Y-37465000D02*
X51816000Y-36830000D01*
X50038000Y-41021000D02*
X51435000Y-41021000D01*
X81200000Y-34400000D02*
X62400000Y-34400000D01*
X82360000Y-35560000D02*
X81200000Y-34400000D01*
X62400000Y-34400000D02*
X62200000Y-34600000D01*
X83185000Y-35560000D02*
X82360000Y-35560000D01*
X83185000Y-35560000D02*
X82760000Y-35560000D01*
D23*
X69850000Y-45100000D02*
X69850000Y-46990000D01*
X69650000Y-44900000D02*
X69850000Y-45100000D01*
D24*
G36*
X48349800Y-34798450D02*
X48432350Y-34881000D01*
X49105000Y-34881000D01*
X49105000Y-34651000D01*
X49955000Y-34651000D01*
X49955000Y-34881000D01*
X50185000Y-34881000D01*
X50185000Y-35731000D01*
X49955000Y-35731000D01*
X49955000Y-35961000D01*
X49105000Y-35961000D01*
X49105000Y-35731000D01*
X48432350Y-35731000D01*
X48349800Y-35813550D01*
X48349800Y-36221681D01*
X48400070Y-36343043D01*
X48492957Y-36435930D01*
X48614319Y-36486200D01*
X48932790Y-36486200D01*
X48930965Y-36487447D01*
X48903685Y-36529841D01*
X48895000Y-36576000D01*
X48895000Y-37896800D01*
X48787050Y-37896800D01*
X48704500Y-37979350D01*
X48704500Y-38735000D01*
X48895000Y-38735000D01*
X48895000Y-39751000D01*
X48704500Y-39751000D01*
X48704500Y-39898000D01*
X48069500Y-39898000D01*
X48069500Y-39751000D01*
X47504350Y-39751000D01*
X47421800Y-39833550D01*
X47421800Y-40324681D01*
X47472070Y-40446043D01*
X47539027Y-40513000D01*
X45495980Y-40513000D01*
X44479627Y-40004824D01*
X44956617Y-40095661D01*
X45922008Y-39903633D01*
X46231133Y-39659019D01*
X44935140Y-38363026D01*
X44920998Y-38377168D01*
X44022972Y-37479142D01*
X44037114Y-37465000D01*
X45833166Y-37465000D01*
X47129159Y-38760993D01*
X47373773Y-38451868D01*
X47421800Y-38199677D01*
X47421800Y-38652450D01*
X47504350Y-38735000D01*
X48069500Y-38735000D01*
X48069500Y-37979350D01*
X47986950Y-37896800D01*
X47686319Y-37896800D01*
X47564957Y-37947070D01*
X47472070Y-38039957D01*
X47435321Y-38128676D01*
X47565801Y-37443523D01*
X47373773Y-36478132D01*
X47129159Y-36169007D01*
X45833166Y-37465000D01*
X44037114Y-37465000D01*
X42799000Y-36226886D01*
X42799000Y-35270981D01*
X43639147Y-35270981D01*
X44935140Y-36566974D01*
X46231133Y-35270981D01*
X45922008Y-35026367D01*
X44913663Y-34834339D01*
X43948272Y-35026367D01*
X43639147Y-35270981D01*
X42799000Y-35270981D01*
X42799000Y-35250907D01*
X43977178Y-34544000D01*
X48349800Y-34544000D01*
X48349800Y-34798450D01*
X48349800Y-34798450D01*
G37*
X48349800Y-34798450D02*
X48432350Y-34881000D01*
X49105000Y-34881000D01*
X49105000Y-34651000D01*
X49955000Y-34651000D01*
X49955000Y-34881000D01*
X50185000Y-34881000D01*
X50185000Y-35731000D01*
X49955000Y-35731000D01*
X49955000Y-35961000D01*
X49105000Y-35961000D01*
X49105000Y-35731000D01*
X48432350Y-35731000D01*
X48349800Y-35813550D01*
X48349800Y-36221681D01*
X48400070Y-36343043D01*
X48492957Y-36435930D01*
X48614319Y-36486200D01*
X48932790Y-36486200D01*
X48930965Y-36487447D01*
X48903685Y-36529841D01*
X48895000Y-36576000D01*
X48895000Y-37896800D01*
X48787050Y-37896800D01*
X48704500Y-37979350D01*
X48704500Y-38735000D01*
X48895000Y-38735000D01*
X48895000Y-39751000D01*
X48704500Y-39751000D01*
X48704500Y-39898000D01*
X48069500Y-39898000D01*
X48069500Y-39751000D01*
X47504350Y-39751000D01*
X47421800Y-39833550D01*
X47421800Y-40324681D01*
X47472070Y-40446043D01*
X47539027Y-40513000D01*
X45495980Y-40513000D01*
X44479627Y-40004824D01*
X44956617Y-40095661D01*
X45922008Y-39903633D01*
X46231133Y-39659019D01*
X44935140Y-38363026D01*
X44920998Y-38377168D01*
X44022972Y-37479142D01*
X44037114Y-37465000D01*
X45833166Y-37465000D01*
X47129159Y-38760993D01*
X47373773Y-38451868D01*
X47421800Y-38199677D01*
X47421800Y-38652450D01*
X47504350Y-38735000D01*
X48069500Y-38735000D01*
X48069500Y-37979350D01*
X47986950Y-37896800D01*
X47686319Y-37896800D01*
X47564957Y-37947070D01*
X47472070Y-38039957D01*
X47435321Y-38128676D01*
X47565801Y-37443523D01*
X47373773Y-36478132D01*
X47129159Y-36169007D01*
X45833166Y-37465000D01*
X44037114Y-37465000D01*
X42799000Y-36226886D01*
X42799000Y-35270981D01*
X43639147Y-35270981D01*
X44935140Y-36566974D01*
X46231133Y-35270981D01*
X45922008Y-35026367D01*
X44913663Y-34834339D01*
X43948272Y-35026367D01*
X43639147Y-35270981D01*
X42799000Y-35270981D01*
X42799000Y-35250907D01*
X43977178Y-34544000D01*
X48349800Y-34544000D01*
X48349800Y-34798450D01*
G36*
X84328000Y-34262548D02*
X84250171Y-34230310D01*
X83767295Y-34230310D01*
X83684745Y-34312860D01*
X83684745Y-35060255D01*
X83840000Y-35060255D01*
X83840000Y-36059745D01*
X83684745Y-36059745D01*
X83684745Y-36215000D01*
X82685255Y-36215000D01*
X82685255Y-36059745D01*
X81937860Y-36059745D01*
X81855310Y-36142295D01*
X81855310Y-36625171D01*
X81887548Y-36703000D01*
X81788000Y-36703000D01*
X81738590Y-36713006D01*
X81696965Y-36741447D01*
X81672549Y-36777085D01*
X80309505Y-39751000D01*
X53213000Y-39751000D01*
X53163590Y-39761006D01*
X53133664Y-39778830D01*
X52533452Y-40259000D01*
X51003200Y-40259000D01*
X51003200Y-39833550D01*
X50920650Y-39751000D01*
X50355500Y-39751000D01*
X50355500Y-39898000D01*
X49784000Y-39898000D01*
X49784000Y-38588000D01*
X50355500Y-38588000D01*
X50355500Y-38735000D01*
X50920650Y-38735000D01*
X51003200Y-38652450D01*
X51003200Y-38227000D01*
X51054000Y-38227000D01*
X51097017Y-38219493D01*
X51340906Y-38131693D01*
X51448305Y-38110330D01*
X51504443Y-38072820D01*
X54272017Y-37076493D01*
X54315118Y-37050342D01*
X54334670Y-37027447D01*
X56023082Y-34494829D01*
X81855310Y-34494829D01*
X81855310Y-34977705D01*
X81937860Y-35060255D01*
X82685255Y-35060255D01*
X82685255Y-34312860D01*
X82602705Y-34230310D01*
X82119829Y-34230310D01*
X81998467Y-34280580D01*
X81905580Y-34373467D01*
X81855310Y-34494829D01*
X56023082Y-34494829D01*
X56582968Y-33655000D01*
X84328000Y-33655000D01*
X84328000Y-34262548D01*
X84328000Y-34262548D01*
G37*
X84328000Y-34262548D02*
X84250171Y-34230310D01*
X83767295Y-34230310D01*
X83684745Y-34312860D01*
X83684745Y-35060255D01*
X83840000Y-35060255D01*
X83840000Y-36059745D01*
X83684745Y-36059745D01*
X83684745Y-36215000D01*
X82685255Y-36215000D01*
X82685255Y-36059745D01*
X81937860Y-36059745D01*
X81855310Y-36142295D01*
X81855310Y-36625171D01*
X81887548Y-36703000D01*
X81788000Y-36703000D01*
X81738590Y-36713006D01*
X81696965Y-36741447D01*
X81672549Y-36777085D01*
X80309505Y-39751000D01*
X53213000Y-39751000D01*
X53163590Y-39761006D01*
X53133664Y-39778830D01*
X52533452Y-40259000D01*
X51003200Y-40259000D01*
X51003200Y-39833550D01*
X50920650Y-39751000D01*
X50355500Y-39751000D01*
X50355500Y-39898000D01*
X49784000Y-39898000D01*
X49784000Y-38588000D01*
X50355500Y-38588000D01*
X50355500Y-38735000D01*
X50920650Y-38735000D01*
X51003200Y-38652450D01*
X51003200Y-38227000D01*
X51054000Y-38227000D01*
X51097017Y-38219493D01*
X51340906Y-38131693D01*
X51448305Y-38110330D01*
X51504443Y-38072820D01*
X54272017Y-37076493D01*
X54315118Y-37050342D01*
X54334670Y-37027447D01*
X56023082Y-34494829D01*
X81855310Y-34494829D01*
X81855310Y-34977705D01*
X81937860Y-35060255D01*
X82685255Y-35060255D01*
X82685255Y-34312860D01*
X82602705Y-34230310D01*
X82119829Y-34230310D01*
X81998467Y-34280580D01*
X81905580Y-34373467D01*
X81855310Y-34494829D01*
X56023082Y-34494829D01*
X56582968Y-33655000D01*
X84328000Y-33655000D01*
X84328000Y-34262548D01*
G36*
X39847828Y-37450858D02*
X39833686Y-37465000D01*
X41129679Y-38760993D01*
X41374293Y-38451868D01*
X41562459Y-37463803D01*
X42360449Y-39618375D01*
X41913923Y-39533339D01*
X40948532Y-39725367D01*
X40639407Y-39969981D01*
X41935400Y-41265974D01*
X41949542Y-41251832D01*
X42847568Y-42149858D01*
X42833426Y-42164000D01*
X44129419Y-43459993D01*
X44374033Y-43150868D01*
X44566061Y-42142523D01*
X44374033Y-41177132D01*
X44129420Y-40868008D01*
X44162964Y-40834464D01*
X44894368Y-41257909D01*
X44958000Y-41275000D01*
X48573032Y-41275000D01*
X49043330Y-41980447D01*
X49079063Y-42016008D01*
X49149000Y-42037000D01*
X51562000Y-42037000D01*
X51611410Y-42026994D01*
X51651048Y-42000550D01*
X53301983Y-40377000D01*
X80341202Y-40377000D01*
X81703161Y-41982166D01*
X81742758Y-42013368D01*
X81799522Y-42026999D01*
X82549998Y-42029825D01*
X82549998Y-42040103D01*
X82498648Y-42041142D01*
X82395449Y-42110048D01*
X82046097Y-42493641D01*
X82035299Y-42680255D01*
X82685255Y-42680255D01*
X82685255Y-42525000D01*
X83684745Y-42525000D01*
X83684745Y-42680255D01*
X83840000Y-42680255D01*
X83840000Y-43679745D01*
X83684745Y-43679745D01*
X83684745Y-44322634D01*
X83697582Y-44322374D01*
X81756751Y-45339000D01*
X70332600Y-45339000D01*
X70332600Y-45100005D01*
X70332601Y-45100000D01*
X70323444Y-45053966D01*
X70330882Y-45036054D01*
X70331118Y-44765135D01*
X70227661Y-44514748D01*
X70036259Y-44323013D01*
X69786054Y-44219118D01*
X69515135Y-44218882D01*
X69264748Y-44322339D01*
X69073013Y-44513741D01*
X68969118Y-44763946D01*
X68968882Y-45034865D01*
X69072339Y-45285252D01*
X69125994Y-45339000D01*
X40453221Y-45339000D01*
X39786155Y-44358019D01*
X40639407Y-44358019D01*
X40948532Y-44602633D01*
X41956877Y-44794661D01*
X42922268Y-44602633D01*
X43231393Y-44358019D01*
X42553119Y-43679745D01*
X82035299Y-43679745D01*
X82046097Y-43866359D01*
X82395449Y-44249952D01*
X82498648Y-44318858D01*
X82685255Y-44322634D01*
X82685255Y-43679745D01*
X82035299Y-43679745D01*
X42553119Y-43679745D01*
X41935400Y-43062026D01*
X40639407Y-44358019D01*
X39786155Y-44358019D01*
X38308826Y-42185477D01*
X39304739Y-42185477D01*
X39496767Y-43150868D01*
X39741381Y-43459993D01*
X41037374Y-42164000D01*
X39741381Y-40868007D01*
X39496767Y-41177132D01*
X39304739Y-42185477D01*
X38308826Y-42185477D01*
X36590834Y-39659019D01*
X37639667Y-39659019D01*
X37948792Y-39903633D01*
X38957137Y-40095661D01*
X39922528Y-39903633D01*
X40231653Y-39659019D01*
X38935660Y-38363026D01*
X37639667Y-39659019D01*
X36590834Y-39659019D01*
X36202250Y-39087573D01*
X36403407Y-37981209D01*
X36497027Y-38451868D01*
X36741641Y-38760993D01*
X38037634Y-37465000D01*
X38023492Y-37450858D01*
X38921518Y-36552832D01*
X38935660Y-36566974D01*
X38949802Y-36552832D01*
X39847828Y-37450858D01*
X39847828Y-37450858D01*
G37*
X39847828Y-37450858D02*
X39833686Y-37465000D01*
X41129679Y-38760993D01*
X41374293Y-38451868D01*
X41562459Y-37463803D01*
X42360449Y-39618375D01*
X41913923Y-39533339D01*
X40948532Y-39725367D01*
X40639407Y-39969981D01*
X41935400Y-41265974D01*
X41949542Y-41251832D01*
X42847568Y-42149858D01*
X42833426Y-42164000D01*
X44129419Y-43459993D01*
X44374033Y-43150868D01*
X44566061Y-42142523D01*
X44374033Y-41177132D01*
X44129420Y-40868008D01*
X44162964Y-40834464D01*
X44894368Y-41257909D01*
X44958000Y-41275000D01*
X48573032Y-41275000D01*
X49043330Y-41980447D01*
X49079063Y-42016008D01*
X49149000Y-42037000D01*
X51562000Y-42037000D01*
X51611410Y-42026994D01*
X51651048Y-42000550D01*
X53301983Y-40377000D01*
X80341202Y-40377000D01*
X81703161Y-41982166D01*
X81742758Y-42013368D01*
X81799522Y-42026999D01*
X82549998Y-42029825D01*
X82549998Y-42040103D01*
X82498648Y-42041142D01*
X82395449Y-42110048D01*
X82046097Y-42493641D01*
X82035299Y-42680255D01*
X82685255Y-42680255D01*
X82685255Y-42525000D01*
X83684745Y-42525000D01*
X83684745Y-42680255D01*
X83840000Y-42680255D01*
X83840000Y-43679745D01*
X83684745Y-43679745D01*
X83684745Y-44322634D01*
X83697582Y-44322374D01*
X81756751Y-45339000D01*
X70332600Y-45339000D01*
X70332600Y-45100005D01*
X70332601Y-45100000D01*
X70323444Y-45053966D01*
X70330882Y-45036054D01*
X70331118Y-44765135D01*
X70227661Y-44514748D01*
X70036259Y-44323013D01*
X69786054Y-44219118D01*
X69515135Y-44218882D01*
X69264748Y-44322339D01*
X69073013Y-44513741D01*
X68969118Y-44763946D01*
X68968882Y-45034865D01*
X69072339Y-45285252D01*
X69125994Y-45339000D01*
X40453221Y-45339000D01*
X39786155Y-44358019D01*
X40639407Y-44358019D01*
X40948532Y-44602633D01*
X41956877Y-44794661D01*
X42922268Y-44602633D01*
X43231393Y-44358019D01*
X42553119Y-43679745D01*
X82035299Y-43679745D01*
X82046097Y-43866359D01*
X82395449Y-44249952D01*
X82498648Y-44318858D01*
X82685255Y-44322634D01*
X82685255Y-43679745D01*
X82035299Y-43679745D01*
X42553119Y-43679745D01*
X41935400Y-43062026D01*
X40639407Y-44358019D01*
X39786155Y-44358019D01*
X38308826Y-42185477D01*
X39304739Y-42185477D01*
X39496767Y-43150868D01*
X39741381Y-43459993D01*
X41037374Y-42164000D01*
X39741381Y-40868007D01*
X39496767Y-41177132D01*
X39304739Y-42185477D01*
X38308826Y-42185477D01*
X36590834Y-39659019D01*
X37639667Y-39659019D01*
X37948792Y-39903633D01*
X38957137Y-40095661D01*
X39922528Y-39903633D01*
X40231653Y-39659019D01*
X38935660Y-38363026D01*
X37639667Y-39659019D01*
X36590834Y-39659019D01*
X36202250Y-39087573D01*
X36403407Y-37981209D01*
X36497027Y-38451868D01*
X36741641Y-38760993D01*
X38037634Y-37465000D01*
X38023492Y-37450858D01*
X38921518Y-36552832D01*
X38935660Y-36566974D01*
X38949802Y-36552832D01*
X39847828Y-37450858D01*
M02*
