G04 #@! TF.FileFunction,Legend,Bot*
%FSLAX46Y46*%
G04 Gerber Fmt 4.6, Leading zero omitted, Abs format (unit mm)*
G04 Created by KiCad (PCBNEW 4.0.7) date 06/24/18 16:56:01*
%MOMM*%
%LPD*%
G01*
G04 APERTURE LIST*
%ADD10C,0.100000*%
%ADD11C,0.203200*%
%ADD12C,0.127000*%
%ADD13C,0.177800*%
%ADD14C,0.150000*%
G04 APERTURE END LIST*
D10*
D11*
X80663143Y-42608500D02*
X80772000Y-42554071D01*
X80935286Y-42554071D01*
X81098571Y-42608500D01*
X81207429Y-42717357D01*
X81261857Y-42826214D01*
X81316286Y-43043929D01*
X81316286Y-43207214D01*
X81261857Y-43424929D01*
X81207429Y-43533786D01*
X81098571Y-43642643D01*
X80935286Y-43697071D01*
X80826429Y-43697071D01*
X80663143Y-43642643D01*
X80608714Y-43588214D01*
X80608714Y-43207214D01*
X80826429Y-43207214D01*
X80118857Y-43697071D02*
X80118857Y-42554071D01*
X79465714Y-43697071D01*
X79465714Y-42554071D01*
X78921428Y-43697071D02*
X78921428Y-42554071D01*
X78649285Y-42554071D01*
X78486000Y-42608500D01*
X78377142Y-42717357D01*
X78322714Y-42826214D01*
X78268285Y-43043929D01*
X78268285Y-43207214D01*
X78322714Y-43424929D01*
X78377142Y-43533786D01*
X78486000Y-43642643D01*
X78649285Y-43697071D01*
X78921428Y-43697071D01*
X80608714Y-41048214D02*
X80663143Y-41102643D01*
X80826429Y-41157071D01*
X80935286Y-41157071D01*
X81098571Y-41102643D01*
X81207429Y-40993786D01*
X81261857Y-40884929D01*
X81316286Y-40667214D01*
X81316286Y-40503929D01*
X81261857Y-40286214D01*
X81207429Y-40177357D01*
X81098571Y-40068500D01*
X80935286Y-40014071D01*
X80826429Y-40014071D01*
X80663143Y-40068500D01*
X80608714Y-40122929D01*
X79574571Y-41157071D02*
X80118857Y-41157071D01*
X80118857Y-40014071D01*
X79193571Y-41157071D02*
X79193571Y-40014071D01*
X78540428Y-41157071D02*
X79030285Y-40503929D01*
X78540428Y-40014071D02*
X79193571Y-40667214D01*
X81261857Y-38617071D02*
X81261857Y-37474071D01*
X80989714Y-37474071D01*
X80826429Y-37528500D01*
X80717571Y-37637357D01*
X80663143Y-37746214D01*
X80608714Y-37963929D01*
X80608714Y-38127214D01*
X80663143Y-38344929D01*
X80717571Y-38453786D01*
X80826429Y-38562643D01*
X80989714Y-38617071D01*
X81261857Y-38617071D01*
X80173286Y-38290500D02*
X79629000Y-38290500D01*
X80282143Y-38617071D02*
X79901143Y-37474071D01*
X79520143Y-38617071D01*
X79302429Y-37474071D02*
X78649286Y-37474071D01*
X78975857Y-38617071D02*
X78975857Y-37474071D01*
X78322715Y-38290500D02*
X77778429Y-38290500D01*
X78431572Y-38617071D02*
X78050572Y-37474071D01*
X77669572Y-38617071D01*
X81425143Y-35061071D02*
X81044143Y-36204071D01*
X80663143Y-35061071D01*
X79737857Y-36204071D02*
X80282143Y-36204071D01*
X80282143Y-35061071D01*
X79356857Y-35605357D02*
X78975857Y-35605357D01*
X78812571Y-36204071D02*
X79356857Y-36204071D01*
X79356857Y-35061071D01*
X78812571Y-35061071D01*
X78322714Y-36204071D02*
X78322714Y-35061071D01*
X78050571Y-35061071D01*
X77887286Y-35115500D01*
X77778428Y-35224357D01*
X77724000Y-35333214D01*
X77669571Y-35550929D01*
X77669571Y-35714214D01*
X77724000Y-35931929D01*
X77778428Y-36040786D01*
X77887286Y-36149643D01*
X78050571Y-36204071D01*
X78322714Y-36204071D01*
D12*
X53920571Y-40730714D02*
X53920571Y-41347571D01*
X53884286Y-41420143D01*
X53848000Y-41456429D01*
X53775429Y-41492714D01*
X53630286Y-41492714D01*
X53557714Y-41456429D01*
X53521429Y-41420143D01*
X53485143Y-41347571D01*
X53485143Y-40730714D01*
X53158571Y-41456429D02*
X53049714Y-41492714D01*
X52868285Y-41492714D01*
X52795714Y-41456429D01*
X52759428Y-41420143D01*
X52723143Y-41347571D01*
X52723143Y-41275000D01*
X52759428Y-41202429D01*
X52795714Y-41166143D01*
X52868285Y-41129857D01*
X53013428Y-41093571D01*
X53086000Y-41057286D01*
X53122285Y-41021000D01*
X53158571Y-40948429D01*
X53158571Y-40875857D01*
X53122285Y-40803286D01*
X53086000Y-40767000D01*
X53013428Y-40730714D01*
X52832000Y-40730714D01*
X52723143Y-40767000D01*
X52142571Y-41093571D02*
X52033714Y-41129857D01*
X51997429Y-41166143D01*
X51961143Y-41238714D01*
X51961143Y-41347571D01*
X51997429Y-41420143D01*
X52033714Y-41456429D01*
X52106286Y-41492714D01*
X52396571Y-41492714D01*
X52396571Y-40730714D01*
X52142571Y-40730714D01*
X52070000Y-40767000D01*
X52033714Y-40803286D01*
X51997429Y-40875857D01*
X51997429Y-40948429D01*
X52033714Y-41021000D01*
X52070000Y-41057286D01*
X52142571Y-41093571D01*
X52396571Y-41093571D01*
D11*
X55018214Y-38617071D02*
X54637214Y-39760071D01*
X54256214Y-38617071D01*
X53330928Y-39760071D02*
X53875214Y-39760071D01*
X53875214Y-38617071D01*
X52949928Y-39161357D02*
X52568928Y-39161357D01*
X52405642Y-39760071D02*
X52949928Y-39760071D01*
X52949928Y-38617071D01*
X52405642Y-38617071D01*
X51915785Y-39760071D02*
X51915785Y-38617071D01*
X51643642Y-38617071D01*
X51480357Y-38671500D01*
X51371499Y-38780357D01*
X51317071Y-38889214D01*
X51262642Y-39106929D01*
X51262642Y-39270214D01*
X51317071Y-39487929D01*
X51371499Y-39596786D01*
X51480357Y-39705643D01*
X51643642Y-39760071D01*
X51915785Y-39760071D01*
D12*
X47425428Y-40331571D02*
X47171428Y-40331571D01*
X47062571Y-40730714D02*
X47425428Y-40730714D01*
X47425428Y-39968714D01*
X47062571Y-39968714D01*
X46808571Y-39968714D02*
X46300571Y-40730714D01*
X46300571Y-39968714D02*
X46808571Y-40730714D01*
X46119143Y-39968714D02*
X45683714Y-39968714D01*
X45901428Y-40730714D02*
X45901428Y-39968714D01*
X53648428Y-37410571D02*
X53539571Y-37446857D01*
X53503286Y-37483143D01*
X53467000Y-37555714D01*
X53467000Y-37664571D01*
X53503286Y-37737143D01*
X53539571Y-37773429D01*
X53612143Y-37809714D01*
X53902428Y-37809714D01*
X53902428Y-37047714D01*
X53648428Y-37047714D01*
X53575857Y-37084000D01*
X53539571Y-37120286D01*
X53503286Y-37192857D01*
X53503286Y-37265429D01*
X53539571Y-37338000D01*
X53575857Y-37374286D01*
X53648428Y-37410571D01*
X53902428Y-37410571D01*
X53176714Y-37592000D02*
X52813857Y-37592000D01*
X53249286Y-37809714D02*
X52995286Y-37047714D01*
X52741286Y-37809714D01*
X52596143Y-37047714D02*
X52160714Y-37047714D01*
X52378428Y-37809714D02*
X52378428Y-37047714D01*
D13*
X66160951Y-36844514D02*
X65822284Y-37606514D01*
X65483618Y-36844514D01*
X64661142Y-37606514D02*
X65144951Y-37606514D01*
X65144951Y-36844514D01*
X64322475Y-37207371D02*
X63983809Y-37207371D01*
X63838666Y-37606514D02*
X64322475Y-37606514D01*
X64322475Y-36844514D01*
X63838666Y-36844514D01*
X63403237Y-37606514D02*
X63403237Y-36844514D01*
X63161332Y-36844514D01*
X63016190Y-36880800D01*
X62919428Y-36953371D01*
X62871047Y-37025943D01*
X62822666Y-37171086D01*
X62822666Y-37279943D01*
X62871047Y-37425086D01*
X62919428Y-37497657D01*
X63016190Y-37570229D01*
X63161332Y-37606514D01*
X63403237Y-37606514D01*
X61322857Y-36844514D02*
X61322857Y-37388800D01*
X61371237Y-37497657D01*
X61467999Y-37570229D01*
X61613142Y-37606514D01*
X61709904Y-37606514D01*
X60403619Y-37098514D02*
X60403619Y-37606514D01*
X60839047Y-37098514D02*
X60839047Y-37497657D01*
X60790666Y-37570229D01*
X60693904Y-37606514D01*
X60548762Y-37606514D01*
X60452000Y-37570229D01*
X60403619Y-37533943D01*
X59919809Y-37606514D02*
X59919809Y-37098514D01*
X59919809Y-37171086D02*
X59871428Y-37134800D01*
X59774666Y-37098514D01*
X59629524Y-37098514D01*
X59532762Y-37134800D01*
X59484381Y-37207371D01*
X59484381Y-37606514D01*
X59484381Y-37207371D02*
X59436000Y-37134800D01*
X59339238Y-37098514D01*
X59194095Y-37098514D01*
X59097333Y-37134800D01*
X59048952Y-37207371D01*
X59048952Y-37606514D01*
X58565142Y-37098514D02*
X58565142Y-37860514D01*
X58565142Y-37134800D02*
X58468380Y-37098514D01*
X58274857Y-37098514D01*
X58178095Y-37134800D01*
X58129714Y-37171086D01*
X58081333Y-37243657D01*
X58081333Y-37461371D01*
X58129714Y-37533943D01*
X58178095Y-37570229D01*
X58274857Y-37606514D01*
X58468380Y-37606514D01*
X58565142Y-37570229D01*
X57258857Y-37570229D02*
X57355619Y-37606514D01*
X57549142Y-37606514D01*
X57645904Y-37570229D01*
X57694285Y-37497657D01*
X57694285Y-37207371D01*
X57645904Y-37134800D01*
X57549142Y-37098514D01*
X57355619Y-37098514D01*
X57258857Y-37134800D01*
X57210476Y-37207371D01*
X57210476Y-37279943D01*
X57694285Y-37352514D01*
X56775047Y-37606514D02*
X56775047Y-37098514D01*
X56775047Y-37243657D02*
X56726666Y-37171086D01*
X56678285Y-37134800D01*
X56581523Y-37098514D01*
X56484762Y-37098514D01*
X65048189Y-38891029D02*
X64903046Y-38927314D01*
X64661142Y-38927314D01*
X64564380Y-38891029D01*
X64515999Y-38854743D01*
X64467618Y-38782171D01*
X64467618Y-38709600D01*
X64515999Y-38637029D01*
X64564380Y-38600743D01*
X64661142Y-38564457D01*
X64854665Y-38528171D01*
X64951427Y-38491886D01*
X64999808Y-38455600D01*
X65048189Y-38383029D01*
X65048189Y-38310457D01*
X64999808Y-38237886D01*
X64951427Y-38201600D01*
X64854665Y-38165314D01*
X64612761Y-38165314D01*
X64467618Y-38201600D01*
X63645142Y-38891029D02*
X63741904Y-38927314D01*
X63935427Y-38927314D01*
X64032189Y-38891029D01*
X64080570Y-38818457D01*
X64080570Y-38528171D01*
X64032189Y-38455600D01*
X63935427Y-38419314D01*
X63741904Y-38419314D01*
X63645142Y-38455600D01*
X63596761Y-38528171D01*
X63596761Y-38600743D01*
X64080570Y-38673314D01*
X62774285Y-38891029D02*
X62871047Y-38927314D01*
X63064570Y-38927314D01*
X63161332Y-38891029D01*
X63209713Y-38818457D01*
X63209713Y-38528171D01*
X63161332Y-38455600D01*
X63064570Y-38419314D01*
X62871047Y-38419314D01*
X62774285Y-38455600D01*
X62725904Y-38528171D01*
X62725904Y-38600743D01*
X63209713Y-38673314D01*
X61516380Y-38927314D02*
X61516380Y-38165314D01*
X61177714Y-38709600D01*
X60839047Y-38165314D01*
X60839047Y-38927314D01*
X59919809Y-38927314D02*
X59919809Y-38528171D01*
X59968190Y-38455600D01*
X60064952Y-38419314D01*
X60258475Y-38419314D01*
X60355237Y-38455600D01*
X59919809Y-38891029D02*
X60016571Y-38927314D01*
X60258475Y-38927314D01*
X60355237Y-38891029D01*
X60403618Y-38818457D01*
X60403618Y-38745886D01*
X60355237Y-38673314D01*
X60258475Y-38637029D01*
X60016571Y-38637029D01*
X59919809Y-38600743D01*
X59435999Y-38419314D02*
X59435999Y-38927314D01*
X59435999Y-38491886D02*
X59387618Y-38455600D01*
X59290856Y-38419314D01*
X59145714Y-38419314D01*
X59048952Y-38455600D01*
X59000571Y-38528171D01*
X59000571Y-38927314D01*
X58081333Y-38419314D02*
X58081333Y-38927314D01*
X58516761Y-38419314D02*
X58516761Y-38818457D01*
X58468380Y-38891029D01*
X58371618Y-38927314D01*
X58226476Y-38927314D01*
X58129714Y-38891029D01*
X58081333Y-38854743D01*
X57162095Y-38927314D02*
X57162095Y-38528171D01*
X57210476Y-38455600D01*
X57307238Y-38419314D01*
X57500761Y-38419314D01*
X57597523Y-38455600D01*
X57162095Y-38891029D02*
X57258857Y-38927314D01*
X57500761Y-38927314D01*
X57597523Y-38891029D01*
X57645904Y-38818457D01*
X57645904Y-38745886D01*
X57597523Y-38673314D01*
X57500761Y-38637029D01*
X57258857Y-38637029D01*
X57162095Y-38600743D01*
X56533142Y-38927314D02*
X56629904Y-38891029D01*
X56678285Y-38818457D01*
X56678285Y-38165314D01*
X70079809Y-40175543D02*
X70128190Y-40211829D01*
X70273333Y-40248114D01*
X70370095Y-40248114D01*
X70515237Y-40211829D01*
X70611999Y-40139257D01*
X70660380Y-40066686D01*
X70708761Y-39921543D01*
X70708761Y-39812686D01*
X70660380Y-39667543D01*
X70611999Y-39594971D01*
X70515237Y-39522400D01*
X70370095Y-39486114D01*
X70273333Y-39486114D01*
X70128190Y-39522400D01*
X70079809Y-39558686D01*
X69644380Y-40248114D02*
X69644380Y-39486114D01*
X69644380Y-39848971D02*
X69063809Y-39848971D01*
X69063809Y-40248114D02*
X69063809Y-39486114D01*
X68386475Y-39486114D02*
X68192952Y-39486114D01*
X68096190Y-39522400D01*
X67999428Y-39594971D01*
X67951047Y-39740114D01*
X67951047Y-39994114D01*
X67999428Y-40139257D01*
X68096190Y-40211829D01*
X68192952Y-40248114D01*
X68386475Y-40248114D01*
X68483237Y-40211829D01*
X68579999Y-40139257D01*
X68628380Y-39994114D01*
X68628380Y-39740114D01*
X68579999Y-39594971D01*
X68483237Y-39522400D01*
X68386475Y-39486114D01*
X67322094Y-39486114D02*
X67128571Y-39486114D01*
X67031809Y-39522400D01*
X66935047Y-39594971D01*
X66886666Y-39740114D01*
X66886666Y-39994114D01*
X66935047Y-40139257D01*
X67031809Y-40211829D01*
X67128571Y-40248114D01*
X67322094Y-40248114D01*
X67418856Y-40211829D01*
X67515618Y-40139257D01*
X67563999Y-39994114D01*
X67563999Y-39740114D01*
X67515618Y-39594971D01*
X67418856Y-39522400D01*
X67322094Y-39486114D01*
X66499618Y-40211829D02*
X66354475Y-40248114D01*
X66112571Y-40248114D01*
X66015809Y-40211829D01*
X65967428Y-40175543D01*
X65919047Y-40102971D01*
X65919047Y-40030400D01*
X65967428Y-39957829D01*
X66015809Y-39921543D01*
X66112571Y-39885257D01*
X66306094Y-39848971D01*
X66402856Y-39812686D01*
X66451237Y-39776400D01*
X66499618Y-39703829D01*
X66499618Y-39631257D01*
X66451237Y-39558686D01*
X66402856Y-39522400D01*
X66306094Y-39486114D01*
X66064190Y-39486114D01*
X65919047Y-39522400D01*
X65483618Y-39848971D02*
X65144952Y-39848971D01*
X64999809Y-40248114D02*
X65483618Y-40248114D01*
X65483618Y-39486114D01*
X64999809Y-39486114D01*
X63596761Y-39486114D02*
X63403238Y-39486114D01*
X63306476Y-39522400D01*
X63209714Y-39594971D01*
X63161333Y-39740114D01*
X63161333Y-39994114D01*
X63209714Y-40139257D01*
X63306476Y-40211829D01*
X63403238Y-40248114D01*
X63596761Y-40248114D01*
X63693523Y-40211829D01*
X63790285Y-40139257D01*
X63838666Y-39994114D01*
X63838666Y-39740114D01*
X63790285Y-39594971D01*
X63693523Y-39522400D01*
X63596761Y-39486114D01*
X62725904Y-40248114D02*
X62725904Y-39486114D01*
X62145333Y-40248114D01*
X62145333Y-39486114D01*
X61177714Y-40248114D02*
X61661523Y-40248114D01*
X61661523Y-39486114D01*
X60645523Y-39885257D02*
X60645523Y-40248114D01*
X60984190Y-39486114D02*
X60645523Y-39885257D01*
X60306857Y-39486114D01*
X59000571Y-39486114D02*
X58807048Y-39486114D01*
X58710286Y-39522400D01*
X58613524Y-39594971D01*
X58565143Y-39740114D01*
X58565143Y-39994114D01*
X58613524Y-40139257D01*
X58710286Y-40211829D01*
X58807048Y-40248114D01*
X59000571Y-40248114D01*
X59097333Y-40211829D01*
X59194095Y-40139257D01*
X59242476Y-39994114D01*
X59242476Y-39740114D01*
X59194095Y-39594971D01*
X59097333Y-39522400D01*
X59000571Y-39486114D01*
X58129714Y-40248114D02*
X58129714Y-39486114D01*
X57549143Y-40248114D01*
X57549143Y-39486114D01*
X57065333Y-39848971D02*
X56726667Y-39848971D01*
X56581524Y-40248114D02*
X57065333Y-40248114D01*
X57065333Y-39486114D01*
X56581524Y-39486114D01*
X68434856Y-40806914D02*
X67854285Y-40806914D01*
X68144570Y-41568914D02*
X68144570Y-40806914D01*
X67322094Y-40806914D02*
X67128571Y-40806914D01*
X67031809Y-40843200D01*
X66935047Y-40915771D01*
X66886666Y-41060914D01*
X66886666Y-41314914D01*
X66935047Y-41460057D01*
X67031809Y-41532629D01*
X67128571Y-41568914D01*
X67322094Y-41568914D01*
X67418856Y-41532629D01*
X67515618Y-41460057D01*
X67563999Y-41314914D01*
X67563999Y-41060914D01*
X67515618Y-40915771D01*
X67418856Y-40843200D01*
X67322094Y-40806914D01*
X65677142Y-41568914D02*
X65677142Y-40806914D01*
X65290095Y-40806914D01*
X65193333Y-40843200D01*
X65144952Y-40879486D01*
X65096571Y-40952057D01*
X65096571Y-41060914D01*
X65144952Y-41133486D01*
X65193333Y-41169771D01*
X65290095Y-41206057D01*
X65677142Y-41206057D01*
X64467618Y-40806914D02*
X64274095Y-40806914D01*
X64177333Y-40843200D01*
X64080571Y-40915771D01*
X64032190Y-41060914D01*
X64032190Y-41314914D01*
X64080571Y-41460057D01*
X64177333Y-41532629D01*
X64274095Y-41568914D01*
X64467618Y-41568914D01*
X64564380Y-41532629D01*
X64661142Y-41460057D01*
X64709523Y-41314914D01*
X64709523Y-41060914D01*
X64661142Y-40915771D01*
X64564380Y-40843200D01*
X64467618Y-40806914D01*
X63693523Y-40806914D02*
X63451618Y-41568914D01*
X63258095Y-41024629D01*
X63064571Y-41568914D01*
X62822666Y-40806914D01*
X62435618Y-41169771D02*
X62096952Y-41169771D01*
X61951809Y-41568914D02*
X62435618Y-41568914D01*
X62435618Y-40806914D01*
X61951809Y-40806914D01*
X60935809Y-41568914D02*
X61274475Y-41206057D01*
X61516380Y-41568914D02*
X61516380Y-40806914D01*
X61129333Y-40806914D01*
X61032571Y-40843200D01*
X60984190Y-40879486D01*
X60935809Y-40952057D01*
X60935809Y-41060914D01*
X60984190Y-41133486D01*
X61032571Y-41169771D01*
X61129333Y-41206057D01*
X61516380Y-41206057D01*
X59242476Y-41568914D02*
X59726285Y-41568914D01*
X59726285Y-40806914D01*
X58903809Y-41169771D02*
X58565143Y-41169771D01*
X58420000Y-41568914D02*
X58903809Y-41568914D01*
X58903809Y-40806914D01*
X58420000Y-40806914D01*
X57984571Y-41568914D02*
X57984571Y-40806914D01*
X57742666Y-40806914D01*
X57597524Y-40843200D01*
X57500762Y-40915771D01*
X57452381Y-40988343D01*
X57404000Y-41133486D01*
X57404000Y-41242343D01*
X57452381Y-41387486D01*
X57500762Y-41460057D01*
X57597524Y-41532629D01*
X57742666Y-41568914D01*
X57984571Y-41568914D01*
X57016952Y-41532629D02*
X56920190Y-41568914D01*
X56726666Y-41568914D01*
X56629905Y-41532629D01*
X56581524Y-41460057D01*
X56581524Y-41423771D01*
X56629905Y-41351200D01*
X56726666Y-41314914D01*
X56871809Y-41314914D01*
X56968571Y-41278629D01*
X57016952Y-41206057D01*
X57016952Y-41169771D01*
X56968571Y-41097200D01*
X56871809Y-41060914D01*
X56726666Y-41060914D01*
X56629905Y-41097200D01*
D14*
X48768000Y-38100000D02*
X49657000Y-38100000D01*
X48768000Y-40386000D02*
X49657000Y-40386000D01*
X52632428Y-33473571D02*
X52523571Y-33509857D01*
X52487286Y-33546143D01*
X52451000Y-33618714D01*
X52451000Y-33727571D01*
X52487286Y-33800143D01*
X52523571Y-33836429D01*
X52596143Y-33872714D01*
X52886428Y-33872714D01*
X52886428Y-33110714D01*
X52632428Y-33110714D01*
X52559857Y-33147000D01*
X52523571Y-33183286D01*
X52487286Y-33255857D01*
X52487286Y-33328429D01*
X52523571Y-33401000D01*
X52559857Y-33437286D01*
X52632428Y-33473571D01*
X52886428Y-33473571D01*
X52160714Y-33655000D02*
X51797857Y-33655000D01*
X52233286Y-33872714D02*
X51979286Y-33110714D01*
X51725286Y-33872714D01*
X51580143Y-33110714D02*
X51144714Y-33110714D01*
X51362428Y-33872714D02*
X51362428Y-33110714D01*
X58111571Y-33110714D02*
X58111571Y-33727571D01*
X58075286Y-33800143D01*
X58039000Y-33836429D01*
X57966429Y-33872714D01*
X57821286Y-33872714D01*
X57748714Y-33836429D01*
X57712429Y-33800143D01*
X57676143Y-33727571D01*
X57676143Y-33110714D01*
X57349571Y-33836429D02*
X57240714Y-33872714D01*
X57059285Y-33872714D01*
X56986714Y-33836429D01*
X56950428Y-33800143D01*
X56914143Y-33727571D01*
X56914143Y-33655000D01*
X56950428Y-33582429D01*
X56986714Y-33546143D01*
X57059285Y-33509857D01*
X57204428Y-33473571D01*
X57277000Y-33437286D01*
X57313285Y-33401000D01*
X57349571Y-33328429D01*
X57349571Y-33255857D01*
X57313285Y-33183286D01*
X57277000Y-33147000D01*
X57204428Y-33110714D01*
X57023000Y-33110714D01*
X56914143Y-33147000D01*
X56333571Y-33473571D02*
X56224714Y-33509857D01*
X56188429Y-33546143D01*
X56152143Y-33618714D01*
X56152143Y-33727571D01*
X56188429Y-33800143D01*
X56224714Y-33836429D01*
X56297286Y-33872714D01*
X56587571Y-33872714D01*
X56587571Y-33110714D01*
X56333571Y-33110714D01*
X56261000Y-33147000D01*
X56224714Y-33183286D01*
X56188429Y-33255857D01*
X56188429Y-33328429D01*
X56224714Y-33401000D01*
X56261000Y-33437286D01*
X56333571Y-33473571D01*
X56587571Y-33473571D01*
X50110572Y-44958000D02*
X50183143Y-44921714D01*
X50292000Y-44921714D01*
X50400857Y-44958000D01*
X50473429Y-45030571D01*
X50509714Y-45103143D01*
X50546000Y-45248286D01*
X50546000Y-45357143D01*
X50509714Y-45502286D01*
X50473429Y-45574857D01*
X50400857Y-45647429D01*
X50292000Y-45683714D01*
X50219429Y-45683714D01*
X50110572Y-45647429D01*
X50074286Y-45611143D01*
X50074286Y-45357143D01*
X50219429Y-45357143D01*
X49747714Y-45683714D02*
X49747714Y-44921714D01*
X49312286Y-45683714D01*
X49312286Y-44921714D01*
X48949428Y-45683714D02*
X48949428Y-44921714D01*
X48768000Y-44921714D01*
X48659143Y-44958000D01*
X48586571Y-45030571D01*
X48550286Y-45103143D01*
X48514000Y-45248286D01*
X48514000Y-45357143D01*
X48550286Y-45502286D01*
X48586571Y-45574857D01*
X48659143Y-45647429D01*
X48768000Y-45683714D01*
X48949428Y-45683714D01*
X45393428Y-44921714D02*
X44921714Y-44921714D01*
X45175714Y-45212000D01*
X45066856Y-45212000D01*
X44994285Y-45248286D01*
X44957999Y-45284571D01*
X44921714Y-45357143D01*
X44921714Y-45538571D01*
X44957999Y-45611143D01*
X44994285Y-45647429D01*
X45066856Y-45683714D01*
X45284571Y-45683714D01*
X45357142Y-45647429D01*
X45393428Y-45611143D01*
X44704000Y-44921714D02*
X44450000Y-45683714D01*
X44196000Y-44921714D01*
X44014571Y-44921714D02*
X43542857Y-44921714D01*
X43796857Y-45212000D01*
X43687999Y-45212000D01*
X43615428Y-45248286D01*
X43579142Y-45284571D01*
X43542857Y-45357143D01*
X43542857Y-45538571D01*
X43579142Y-45611143D01*
X43615428Y-45647429D01*
X43687999Y-45683714D01*
X43905714Y-45683714D01*
X43978285Y-45647429D01*
X44014571Y-45611143D01*
X42327285Y-45683714D02*
X42581285Y-45320857D01*
X42762713Y-45683714D02*
X42762713Y-44921714D01*
X42472428Y-44921714D01*
X42399856Y-44958000D01*
X42363571Y-44994286D01*
X42327285Y-45066857D01*
X42327285Y-45175714D01*
X42363571Y-45248286D01*
X42399856Y-45284571D01*
X42472428Y-45320857D01*
X42762713Y-45320857D01*
X42036999Y-45647429D02*
X41928142Y-45683714D01*
X41746713Y-45683714D01*
X41674142Y-45647429D01*
X41637856Y-45611143D01*
X41601571Y-45538571D01*
X41601571Y-45466000D01*
X41637856Y-45393429D01*
X41674142Y-45357143D01*
X41746713Y-45320857D01*
X41891856Y-45284571D01*
X41964428Y-45248286D01*
X42000713Y-45212000D01*
X42036999Y-45139429D01*
X42036999Y-45066857D01*
X42000713Y-44994286D01*
X41964428Y-44958000D01*
X41891856Y-44921714D01*
X41710428Y-44921714D01*
X41601571Y-44958000D01*
X41383857Y-44921714D02*
X40948428Y-44921714D01*
X41166142Y-45683714D02*
X41166142Y-44921714D01*
M02*
